<?xml version="1.0" encoding="utf-8"?>
<!-- Generator: Adobe Illustrator 19.0.0, SVG Export Plug-In . SVG Version: 6.00 Build 0)  -->
<svg version="1.1" id="Layer_1" xmlns="http://www.w3.org/2000/svg" xmlns:xlink="http://www.w3.org/1999/xlink" x="0px" y="0px"
	 viewBox="0 0 574 321" style="enable-background:new 0 0 574 321;" xml:space="preserve">
<style type="text/css">
	.st0{fill:#EC6608;}
	.st1{fill:#00528A;}
</style>
<g>
	<path class="st0" d="M467.7,315.6c-56.3,0-100.5-47.1-100.5-107.3v-3h52.2v3c0,36.3,24.3,55.3,48.2,55.3c24,0,48.2-19,48.2-55.3v-3
		h52.2v3C568.2,268.5,524.1,315.6,467.7,315.6"/>
	<path class="st1" d="M113,56.8h39.9V4.5H113C52.8,4.5,5.7,48.7,5.7,105c0,56.3,47.1,100.5,107.3,100.5h68V105.1h-52.2v48.1H113
		c-36.3,0-55.3-24.3-55.3-48.2C57.7,81,76.7,56.8,113,56.8"/>
</g>
<polygon class="st1" points="441.7,205.4 441.7,56.9 387.6,56.9 387.6,4.6 547.8,4.6 547.8,56.9 493.7,56.9 493.7,205.4 "/>
<polygon class="st1" points="253.5,205.4 173.8,4.6 226.5,4.6 271.4,124.8 316.3,4.6 369,4.6 289.3,205.4 "/>
</svg>
