<svg id="Layer_1" data-name="Layer 1" xmlns="http://www.w3.org/2000/svg" viewBox="0 0 179.08 33.08"><defs><style>.cls-1{fill:#333;}</style></defs><title>logo-jucanti</title><path class="cls-1" d="M122.33,4.1c-4.89,0-8.22,3.21-8.82,7.88a2.32,2.32,0,0,0-.07.54v0h0s0,0,0,.06a2.46,2.46,0,0,0,4.91-.11s0-.07,0-.11c.28-2.17,1.59-3.62,3.88-3.6,2.58,0,4.11,1.81,4.08,4.38l0,3.15-4.29,0c-5.38,0-9.07,3.59-9.11,8.34a8.82,8.82,0,0,0,9.19,9.29c5.49,0,9-3.7,9-9l.1-11.5C131.23,8.07,127.77,4.14,122.33,4.1Zm3.89,20.81c0,2.63-1.52,4.34-4.16,4.31s-4.28-1.81-4.25-4.56a4,4,0,0,1,4.33-4l4.12,0Z" transform="translate(-1.85 -2.37)"/><path class="cls-1" d="M145.11,3.52c-5.32,0-9,3.82-9,9.25L136,31.35a2.46,2.46,0,0,0,4.92,0s0-.09,0-.14L141,12.65c0-2.69,1.53-4.51,4-4.49s4,1.86,4,4.55l-.16,18.56s0,.05,0,.08,0,0,0,.06v.16h0a2.46,2.46,0,0,0,4.87,0h0L154,12.93C154,7.49,150.44,3.57,145.11,3.52Z" transform="translate(-1.85 -2.37)"/><path class="cls-1" d="M180.93,6s0,0,0,0A2.36,2.36,0,0,0,178.5,3.6,2.42,2.42,0,0,0,176,6l-.23,25.57A2.5,2.5,0,0,0,178.3,34a2.43,2.43,0,0,0,2.41-2.45L180.94,6Z" transform="translate(-1.85 -2.37)"/><path class="cls-1" d="M60.17,3.91a2.42,2.42,0,0,0-2.43,2.4L57.5,24.69c0,3.21-1.59,5.08-5,5.17H52a2.32,2.32,0,1,0,0,4.63h.63c6.24,0,9.71-3.87,9.76-10.16l.25-18A2.42,2.42,0,0,0,60.17,3.91Z" transform="translate(-1.85 -2.37)"/><path class="cls-1" d="M86.83,6.31h0a2.46,2.46,0,0,0-4.93,0s0,0,0,.07l-.16,18.06c0,2.69-1.53,4.51-4,4.49s-4-1.87-4-4.56l.16-18.1h0a2.46,2.46,0,0,0-4.92,0h0l-.15,17.89c0,5.44,3.53,9.36,8.85,9.4s9-3.82,9-9.25l.16-18h0Z" transform="translate(-1.85 -2.37)"/><path class="cls-1" d="M109.56,24.77h0a2.46,2.46,0,0,0-4.9-.1h0v0c-.27,2.78-1.82,4.4-4.21,4.38-2.58,0-4.11-1.81-4.08-4.5L96.44,13c0-2.69,1.58-4.45,4.1-4.43,2.34,0,3.75,1.51,4,4.06v0h0a2.46,2.46,0,0,0,4.9,0h0v-.07s0-.06,0-.09a2.39,2.39,0,0,0-.07-.56c-.56-4.82-3.88-8.07-8.79-8.11-5.38,0-9,3.82-9.06,9.25l-.09,11.22c0,5.44,3.58,9.36,9,9.41,5,0,8.43-3.35,9-8.37a2.39,2.39,0,0,0,.08-.58s0,0,0-.05Z" transform="translate(-1.85 -2.37)"/><path class="cls-1" d="M170.23,29.31v0h-.14c-2.92,0-4.39-1.87-4.36-5.47l.12-7.25,4.41,0a.69.69,0,0,0,.75-.74l0-3a.69.69,0,0,0-.74-.75l-4.41,0,.06-6.25h0a2.36,2.36,0,0,0-2.43-2.24A2.43,2.43,0,0,0,161.06,6c0,.05,0,.1,0,.15L161,12.05l-3.21,0a.69.69,0,0,0-.75.74l0,3a.69.69,0,0,0,.74.75l3.21,0-.12,7.19c-.05,6.3,3.3,10.19,9,10.24h.31a2.37,2.37,0,0,0,2.29-2.44A2.28,2.28,0,0,0,170.23,29.31Z" transform="translate(-1.85 -2.37)"/><path class="cls-1" d="M38.91,4.89l-.43-.33A11,11,0,0,0,23.64,6.1L22.07,7.79l-.49-.67A11,11,0,0,0,6.88,4.62l-.45.3A10,10,0,0,0,2,11.56,9.7,9.7,0,0,0,3.79,19.1l8.93,12.08a11,11,0,0,0,14.7,2.5l.45-.3a10.32,10.32,0,0,0,2.64-2.52l0,0h0l.09-.1,9.89-11.58a9.75,9.75,0,0,0,2.32-7.43A9.93,9.93,0,0,0,38.91,4.89ZM28.35,26a6,6,0,0,1-2.68,4l-.45.3a6.92,6.92,0,0,1-9.28-1.53L7,16.72a5.74,5.74,0,0,1-1.06-4.46,6,6,0,0,1,2.68-4L9.08,8a7,7,0,0,1,3.83-1.14A6.75,6.75,0,0,1,18.36,9.5l8.93,12.08h0A5.74,5.74,0,0,1,28.35,26Zm9.14-9.42L32.86,22a9.83,9.83,0,0,0-1.68-3.58l-6-8.05,1.45-1.7a7,7,0,0,1,9.37-.94l.43.33a6,6,0,0,1,2.38,4.13A5.78,5.78,0,0,1,37.48,16.62Z" transform="translate(-1.85 -2.37)"/><path class="cls-1" d="M13.63,11.53a1.86,1.86,0,0,0-2.49-.42,1.63,1.63,0,0,0-.44,2.35l1.73,2.34a1.86,1.86,0,0,0,2.49.42,1.63,1.63,0,0,0,.44-2.35Z" transform="translate(-1.85 -2.37)"/></svg>