<?xml version="1.0" encoding="utf-8"?>
<!-- Generator: Adobe Illustrator 21.1.0, SVG Export Plug-In . SVG Version: 6.00 Build 0)  -->
<svg version="1.1" id="Layer_1" xmlns="http://www.w3.org/2000/svg" xmlns:xlink="http://www.w3.org/1999/xlink" x="0px" y="0px"
	 viewBox="0 0 45 38" style="enable-background:new 0 0 45 38;" xml:space="preserve">
<style type="text/css">
	.st0{fill:#333333;}
</style>
<g>
	<path class="st0" d="M38.9,4.9l-0.4-0.3C34,1.1,27.3,1.8,23.6,6.1l-1.6,1.7l-0.5-0.7c-3.3-4.5-9.9-5.6-14.7-2.5L6.4,4.9
		C4.1,6.5,2.5,8.8,2,11.6c-0.5,2.7,0.2,5.3,1.8,7.5l8.9,12.1c2.1,2.8,5.4,4.3,8.7,4.3c2.1,0,4.2-0.6,6-1.8l0.5-0.3
		c1-0.7,1.9-1.5,2.6-2.5l0,0c0,0,0,0,0,0c0,0,0,0,0,0c0,0,0.1-0.1,0.1-0.1c1-1.2,9.9-11.6,9.9-11.6c1.8-2.1,2.6-4.7,2.3-7.4
		C42.5,9,41.1,6.6,38.9,4.9z M28.3,26c-0.3,1.6-1.2,3.1-2.7,4l-0.5,0.3c-3,2-7.2,1.3-9.3-1.5L7,16.7c-1-1.3-1.3-2.9-1.1-4.5
		c0.3-1.6,1.2-3.1,2.7-4L9.1,8c1.2-0.8,2.5-1.1,3.8-1.1c2.1,0,4.2,0.9,5.5,2.7l8.9,12.1v0C28.2,22.9,28.6,24.5,28.3,26z M37.5,16.6
		c0,0-2.3,2.6-4.6,5.4c-0.3-1.3-0.9-2.5-1.7-3.6l-6-8.1l1.5-1.7c2.3-2.7,6.6-3.1,9.4-0.9l0.4,0.3c1.4,1,2.2,2.5,2.4,4.1
		C39,13.8,38.5,15.4,37.5,16.6z"/>
	<path class="st0" d="M13.6,11.5c-0.6-0.8-1.7-0.9-2.5-0.4c-0.8,0.5-1,1.6-0.4,2.3l1.7,2.3c0.6,0.8,1.7,0.9,2.5,0.4
		c0.8-0.5,1-1.6,0.4-2.3L13.6,11.5z"/>
</g>
</svg>
