<?xml version="1.0" encoding="utf-8"?>
<!-- Generator: Adobe Illustrator 21.1.0, SVG Export Plug-In . SVG Version: 6.00 Build 0)  -->
<svg version="1.1" id="Camada_1" xmlns="http://www.w3.org/2000/svg" xmlns:xlink="http://www.w3.org/1999/xlink" x="0px" y="0px"
	 viewBox="314 -24 167.3 22" style="enable-background:new 314 -24 167.3 22;" xml:space="preserve">
<style type="text/css">
	.st0{fill:#660099;}
</style>
<g id="VIVO">
</g>
<path class="st0" d="M334.5-16.7l-1.3,0c-0.9,0-1.6,0.7-1.6,1.6v9.5c0,0.9,0.7,1.6,1.6,1.6l1.3,0c0.9,0,1.6-0.7,1.6-1.6l0-9.5
	C336-16,335.3-16.7,334.5-16.7z M329.1-16.1l-1.4-0.6c-0.7-0.3-1.6,0-2,0.8l-3.2,6.5h0l-3.2-6.5c-0.3-0.8-1.2-1.1-2-0.8l-1.4,0.6
	c-0.6,0.2-1.2,1-0.6,2l5.2,9.2c0.4,0.8,1.2,0.9,1.5,0.9l1.2,0c0.2,0,1-0.1,1.5-0.9l5.2-9.2C330.2-15.1,329.6-15.9,329.1-16.1z
	 M351.8-16.1l-1.4-0.6c-0.7-0.3-1.6,0-2,0.8l-3.2,6.5h0l-3.2-6.5c-0.3-0.8-1.2-1.1-2-0.8l-1.4,0.6c-0.6,0.2-1.2,1-0.6,2l5.2,9.2
	c0.4,0.8,1.2,0.9,1.5,0.9l1.2,0c0.2,0,1-0.1,1.5-0.9l5.2-9.2C352.9-15.1,352.3-15.9,351.8-16.1z M359.7-16.8c-3.6,0-6.4,2.9-6.4,6.4
	c0,3.6,2.9,6.4,6.4,6.4c3.6,0,6.4-2.9,6.4-6.5C366.1-13.9,363.3-16.8,359.7-16.8z M359.7-7.8c-1.4,0-2.5-1.1-2.5-2.5
	c0-1.4,1.1-2.5,2.5-2.5c1.4,0,2.5,1.1,2.5,2.5C362.2-8.9,361.1-7.8,359.7-7.8z M333.8-23c-1.4,0-2.5,1.1-2.5,2.5
	c0,1.4,1.1,2.5,2.5,2.5c1.4,0,2.5-1.1,2.5-2.5C336.3-21.9,335.2-23,333.8-23z"/>
<g>
	<path class="st0" d="M378.5-13.7v1.9h3.5c0.3,0,0.5,0.1,0.6,0.3s0.3,0.4,0.3,0.6v1c0,0.3-0.1,0.5-0.3,0.7C382.5-9.1,382.3-9,382-9
		h-3.5v2.1h5.4c0.3,0,0.5,0.1,0.7,0.3c0.2,0.2,0.3,0.4,0.3,0.7V-5c0,0.3-0.1,0.5-0.3,0.7C384.5-4.1,384.3-4,384-4h-7.6
		c-0.4,0-0.7-0.1-1-0.4c-0.3-0.3-0.4-0.6-0.4-1v-9.5c0-0.4,0.2-0.8,0.5-1.2c0.3-0.3,0.7-0.5,1.2-0.5h7.3c0.3,0,0.5,0.1,0.7,0.3
		c0.2,0.2,0.3,0.4,0.3,0.7v0.9c0,0.3-0.1,0.5-0.3,0.7s-0.4,0.3-0.7,0.3H378.5z"/>
	<path class="st0" d="M391.2-10.5c-0.1-0.1-0.1-0.3-0.2-0.5c-0.1-0.2-0.1-0.4-0.2-0.6h0c0,0.2,0,0.3,0,0.6c0,0.2,0,0.4,0,0.5
		L390.4-5c0,0.4-0.2,0.7-0.4,0.9s-0.6,0.3-0.9,0.3l-1-0.1c-0.3,0-0.6-0.2-0.8-0.4c-0.2-0.2-0.3-0.5-0.2-0.9l1-10.2
		c0-0.4,0.2-0.7,0.4-0.9c0.2-0.2,0.6-0.4,1-0.4h1.1c0.3,0,0.7,0.1,0.9,0.2s0.5,0.4,0.6,0.7l2.2,5.9h0.1l2.3-5.9
		c0.2-0.4,0.4-0.7,0.7-0.8c0.3-0.1,0.7-0.2,1.1-0.1l1.1,0.1c0.3,0,0.5,0.1,0.7,0.3c0.2,0.2,0.3,0.5,0.3,1l1,10.1
		c0,0.3-0.1,0.6-0.3,0.9c-0.2,0.3-0.5,0.4-0.9,0.4l-0.9,0c-0.4,0-0.7-0.1-0.9-0.3c-0.2-0.2-0.4-0.5-0.4-0.9l-0.3-5.5
		c0-0.1,0-0.3,0-0.5c0-0.2,0-0.4,0-0.6h0c0,0.2-0.1,0.4-0.2,0.6c-0.1,0.2-0.2,0.4-0.2,0.5L396-7.3c-0.1,0.3-0.3,0.5-0.5,0.7
		c-0.2,0.2-0.5,0.3-0.9,0.3h-0.9c-0.3,0-0.6-0.1-0.8-0.2c-0.2-0.1-0.4-0.4-0.6-0.7L391.2-10.5z"/>
	<path class="st0" d="M408.8-8c-0.2,0-0.4,0-0.6,0c-0.2,0-0.4,0-0.5,0v3c0,0.3-0.1,0.6-0.4,0.8c-0.2,0.2-0.6,0.3-0.9,0.3h-1
		c-0.3,0-0.6-0.1-0.9-0.3c-0.2-0.2-0.4-0.5-0.4-0.8v-10.1c0-0.3,0.1-0.6,0.3-0.8s0.4-0.4,0.7-0.5c0.5-0.2,1.1-0.3,1.7-0.3
		c0.6-0.1,1.2-0.1,1.8-0.1c0.8,0,1.6,0.1,2.4,0.2c0.8,0.1,1.4,0.4,2,0.7c0.6,0.3,1.1,0.7,1.4,1.3c0.4,0.5,0.5,1.2,0.5,2.1
		c0,0.4-0.1,0.9-0.2,1.5c-0.1,0.5-0.4,1-0.9,1.5c-0.4,0.5-1.1,0.9-1.9,1.2C411.2-8.2,410.1-8,408.8-8z M409.1-14.1
		c-0.1,0-0.3,0-0.6,0c-0.3,0-0.5,0-0.8,0.1v3.1c0.5,0,0.8,0,1,0c0.1,0,0.2,0,0.3,0c0.9,0,1.6-0.1,2-0.4c0.4-0.3,0.6-0.7,0.6-1.3
		C411.6-13.5,410.8-14.1,409.1-14.1z"/>
	<path class="st0" d="M428-12.8c0,0.8-0.2,1.5-0.6,2.1c-0.4,0.6-1,1.1-1.9,1.5l2.6,3.1c0.1,0.1,0.2,0.3,0.2,0.5c0,0.2,0,0.3,0,0.5
		c0,0.2-0.1,0.3-0.2,0.5c-0.1,0.1-0.3,0.2-0.4,0.3L427.2-4c-0.4,0.2-0.8,0.2-1.2,0.2c-0.4,0-0.7-0.2-0.9-0.6l-2.8-4h-1.5V-5
		c0,0.3-0.1,0.6-0.4,0.8c-0.2,0.2-0.6,0.3-0.9,0.3h-1c-0.3,0-0.6-0.1-0.9-0.3c-0.2-0.2-0.4-0.5-0.4-0.8v-10.1c0-0.3,0.1-0.6,0.3-0.8
		s0.4-0.4,0.7-0.5c0.5-0.2,1.1-0.3,1.8-0.3c0.7-0.1,1.3-0.1,1.9-0.1c0.8,0,1.6,0.1,2.3,0.2c0.7,0.1,1.4,0.3,2,0.6
		c0.6,0.3,1,0.7,1.4,1.3C427.9-14.2,428-13.6,428-12.8z M421.9-11.1c0.8,0,1.5-0.1,1.9-0.3c0.5-0.2,0.7-0.7,0.7-1.3
		c0-0.5-0.2-0.8-0.6-1c-0.4-0.2-1-0.3-1.7-0.3c-0.3,0-0.5,0-0.7,0c-0.2,0-0.5,0-0.9,0.1v2.9H421.9z"/>
	<path class="st0" d="M434.3-13.7v1.9h3.5c0.3,0,0.5,0.1,0.6,0.3s0.3,0.4,0.3,0.6v1c0,0.3-0.1,0.5-0.3,0.7c-0.2,0.2-0.4,0.2-0.6,0.2
		h-3.5v2.1h5.4c0.3,0,0.5,0.1,0.7,0.3c0.2,0.2,0.3,0.4,0.3,0.7V-5c0,0.3-0.1,0.5-0.3,0.7c-0.2,0.2-0.4,0.3-0.7,0.3h-7.6
		c-0.4,0-0.7-0.1-1-0.4c-0.3-0.3-0.4-0.6-0.4-1v-9.5c0-0.4,0.2-0.8,0.5-1.2c0.3-0.3,0.7-0.5,1.2-0.5h7.3c0.3,0,0.5,0.1,0.7,0.3
		c0.2,0.2,0.3,0.4,0.3,0.7v0.9c0,0.3-0.1,0.5-0.3,0.7s-0.4,0.3-0.7,0.3H434.3z"/>
	<path class="st0" d="M447.6-6.7c0.5,0,0.9-0.1,1.2-0.2c0.3-0.1,0.5-0.4,0.5-0.7c0-0.3-0.2-0.6-0.6-0.7c-0.2-0.1-0.5-0.2-0.9-0.3
		c-0.3-0.1-0.7-0.2-1.2-0.3c-0.3-0.1-0.7-0.2-1-0.3c-0.3-0.1-0.6-0.2-1-0.4c-0.6-0.3-1.1-0.7-1.4-1.3c-0.4-0.5-0.5-1.2-0.5-2
		c0-0.7,0.1-1.3,0.4-1.8c0.3-0.5,0.7-0.9,1.1-1.2c0.5-0.3,1-0.6,1.6-0.7c0.6-0.2,1.3-0.2,1.9-0.2c0.7,0,1.4,0.1,2,0.2
		c0.6,0.1,1.2,0.3,1.8,0.5c0.3,0.1,0.5,0.3,0.7,0.5s0.2,0.5,0.1,0.9l-0.2,0.8c-0.1,0.3-0.3,0.5-0.6,0.6c-0.3,0.1-0.6,0.1-1-0.1
		c-0.5-0.2-1-0.3-1.4-0.4s-0.9-0.1-1.4-0.1c-0.5,0-0.9,0.1-1.2,0.2c-0.3,0.1-0.5,0.3-0.5,0.6c0,0.4,0.2,0.7,0.7,0.9
		c0.5,0.2,1.2,0.4,2.2,0.6c0.4,0.1,0.8,0.2,1.2,0.3c0.4,0.1,0.8,0.3,1.1,0.5c0.5,0.3,0.9,0.7,1.2,1.1c0.3,0.5,0.4,1.1,0.4,1.7
		c0,0.8-0.1,1.4-0.4,1.9c-0.3,0.5-0.7,0.9-1.2,1.3s-1.1,0.6-1.8,0.7c-0.7,0.1-1.4,0.2-2.1,0.2c-0.7,0-1.4-0.1-2.2-0.2
		c-0.7-0.1-1.4-0.4-2.1-0.7c-0.3-0.2-0.5-0.4-0.6-0.6c-0.1-0.3-0.1-0.5,0.1-0.8l0.4-0.8c0.1-0.3,0.3-0.4,0.6-0.5
		c0.3-0.1,0.6,0,1,0.1c0.5,0.2,1,0.4,1.5,0.5C446.5-6.8,447-6.7,447.6-6.7z"/>
	<path class="st0" d="M458.8-15.6c0.2-0.4,0.4-0.7,0.6-0.8c0.2-0.2,0.6-0.2,1.1-0.2h1.2c0.4,0,0.7,0.1,1,0.2
		c0.2,0.2,0.4,0.4,0.6,0.8l4.3,9.8c0.1,0.3,0.2,0.5,0.2,0.8c0,0.2-0.1,0.5-0.2,0.6c-0.2,0.2-0.4,0.3-0.7,0.4l-1.2,0.2
		c-0.3,0.1-0.6,0.1-0.9-0.1c-0.3-0.1-0.5-0.3-0.6-0.7l-0.6-1.6h-5.4l-0.6,1.5c-0.3,0.7-0.8,1-1.5,0.8l-1.2-0.3
		c-0.2-0.1-0.3-0.1-0.5-0.3c-0.1-0.1-0.2-0.3-0.2-0.4c0-0.2,0-0.3,0-0.5s0.1-0.4,0.1-0.5L458.8-15.6z M459.2-8.8h3.4l-1.6-4.4h0
		L459.2-8.8z"/>
	<path class="st0" d="M474.1-6.7c0.5,0,0.9-0.1,1.2-0.2c0.3-0.1,0.5-0.4,0.5-0.7c0-0.3-0.2-0.6-0.6-0.7c-0.2-0.1-0.5-0.2-0.9-0.3
		c-0.3-0.1-0.7-0.2-1.2-0.3c-0.3-0.1-0.7-0.2-1-0.3c-0.3-0.1-0.6-0.2-1-0.4c-0.6-0.3-1.1-0.7-1.4-1.3c-0.4-0.5-0.5-1.2-0.5-2
		c0-0.7,0.1-1.3,0.4-1.8c0.3-0.5,0.7-0.9,1.1-1.2c0.5-0.3,1-0.6,1.6-0.7c0.6-0.2,1.3-0.2,1.9-0.2c0.7,0,1.4,0.1,2,0.2
		c0.6,0.1,1.2,0.3,1.8,0.5c0.3,0.1,0.5,0.3,0.7,0.5s0.2,0.5,0.1,0.9l-0.2,0.8c-0.1,0.3-0.3,0.5-0.6,0.6c-0.3,0.1-0.6,0.1-1-0.1
		c-0.5-0.2-1-0.3-1.4-0.4s-0.9-0.1-1.4-0.1c-0.5,0-0.9,0.1-1.2,0.2c-0.3,0.1-0.5,0.3-0.5,0.6c0,0.4,0.2,0.7,0.7,0.9
		c0.5,0.2,1.2,0.4,2.2,0.6c0.4,0.1,0.8,0.2,1.2,0.3c0.4,0.1,0.8,0.3,1.1,0.5c0.5,0.3,0.9,0.7,1.2,1.1c0.3,0.5,0.4,1.1,0.4,1.7
		c0,0.8-0.1,1.4-0.4,1.9c-0.3,0.5-0.7,0.9-1.2,1.3S476.7-4.1,476-4c-0.7,0.1-1.4,0.2-2.1,0.2c-0.7,0-1.4-0.1-2.2-0.2
		c-0.7-0.1-1.4-0.4-2.1-0.7c-0.3-0.2-0.5-0.4-0.6-0.6c-0.1-0.3-0.1-0.5,0.1-0.8l0.4-0.8c0.1-0.3,0.3-0.4,0.6-0.5
		c0.3-0.1,0.6,0,1,0.1c0.5,0.2,1,0.4,1.5,0.5C473.1-6.8,473.6-6.7,474.1-6.7z"/>
</g>
</svg>
